<svg xmlns="http://www.w3.org/2000/svg" width="80" height="80" fill="none"><path fill="url(#a)" d="M10 31.622a5 5 0 0 1 2.48-4.32l25-14.583a5 5 0 0 1 5.04 0l25 14.584A5 5 0 0 1 70 31.622V63.75a5 5 0 0 1-5 5H15a5 5 0 0 1-5-5V31.62z"/><path fill="url(#b)" d="M15 36.25a5 5 0 0 1 5-5h40a5 5 0 0 1 5 5v20a5 5 0 0 1-5 5H20a5 5 0 0 1-5-5v-20z"/><path fill="url(#c)" d="M10 31.086a1.25 1.25 0 0 1 1.943-1.04l25.284 16.855a5 5 0 0 0 5.547 0l25.283-16.855A1.25 1.25 0 0 1 70 31.086V63.75a5 5 0 0 1-5 5H15a5 5 0 0 1-5-5V31.086z"/><defs><linearGradient id="a" x1="40" x2="40" y1="12.038" y2="68.75" gradientUnits="userSpaceOnUse"><stop stop-color="#DFA0BE" stop-opacity=".5"/><stop offset="1" stop-color="#DFA0BE" stop-opacity="0"/></linearGradient><linearGradient id="b" x1="37.059" x2="37.059" y1="31.25" y2="61.25" gradientUnits="userSpaceOnUse"><stop stop-color="#DFA0BE" stop-opacity=".8"/><stop offset="1" stop-color="#DFA0BE" stop-opacity="0"/></linearGradient><linearGradient id="c" x1="40" x2="40" y1="29.834" y2="68.75" gradientUnits="userSpaceOnUse"><stop stop-color="#DFA0BE" stop-opacity=".5"/><stop offset="1" stop-color="#DFA0BE" stop-opacity="0"/></linearGradient></defs></svg>