<svg xmlns="http://www.w3.org/2000/svg" width="80" height="80" fill="none"><path fill="url(#a)" d="M67.5 12.671c0-1.223-.883-2.261-2.1-2.388-2.672-.278-7.444-.566-11.65.268-9.551 1.892-12.867 7.925-13.588 9.519a1.961 1.961 0 0 0-.162.815V66.77c0 1.142 1.448 1.726 2.277.94 2.677-2.536 7.288-6.427 11.473-7.62 3.244-.924 7.844-.686 10.812-.382 1.541.158 2.938-1.032 2.938-2.582V12.671z"/><path fill="url(#b)" d="M12.5 12.671c0-1.223.883-2.261 2.1-2.388 2.672-.278 7.444-.566 11.65.268 9.551 1.892 12.867 7.925 13.588 9.519.116.256.162.533.162.815V66.77c0 1.142-1.448 1.726-2.277.94-2.677-2.536-7.287-6.427-11.473-7.62-3.244-.924-7.844-.686-10.812-.382-1.541.158-2.938-1.032-2.938-2.582V12.671z"/><path fill="url(#c)" d="M70 17.672c0-1.224-.883-2.263-2.1-2.389-2.672-.278-7.444-.566-11.65.268-9.551 1.892-12.867 7.925-13.588 9.519a1.961 1.961 0 0 0-.162.815v36.043c0 1.121 1.398 1.712 2.235.967 2.67-2.378 7.308-6.071 11.515-7.27 3.304-.941 8.013-.896 10.974-.742 1.486.078 2.776-1.09 2.776-2.579V17.671z"/><path fill="url(#d)" d="M10 17.672c0-1.224.883-2.263 2.1-2.389 2.672-.278 7.444-.566 11.65.268 9.551 1.892 12.867 7.925 13.588 9.519.116.256.162.533.162.815v36.043c0 1.121-1.398 1.712-2.235.967-2.67-2.378-7.308-6.071-11.515-7.27-3.304-.941-8.012-.896-10.974-.742-1.486.078-2.776-1.09-2.776-2.579V17.671z"/><defs><linearGradient id="a" x1="52.133" x2="52.133" y1="10" y2="68.071" gradientUnits="userSpaceOnUse"><stop stop-color="#DFA0BE" stop-opacity=".8"/><stop offset="1" stop-color="#DFA0BE" stop-opacity="0"/></linearGradient><linearGradient id="b" x1="26.25" x2="26.25" y1="10" y2="68.071" gradientUnits="userSpaceOnUse"><stop stop-color="#DFA0BE" stop-opacity=".5"/><stop offset="1" stop-color="#DFA0BE" stop-opacity="0"/></linearGradient><linearGradient id="c" x1="56.25" x2="56.25" y1="15" y2="63.226" gradientUnits="userSpaceOnUse"><stop stop-color="#DFA0BE" stop-opacity=".5"/><stop offset="1" stop-color="#DFA0BE" stop-opacity="0"/></linearGradient><linearGradient id="d" x1="23.75" x2="23.75" y1="15" y2="63.226" gradientUnits="userSpaceOnUse"><stop stop-color="#DFA0BE" stop-opacity=".5"/><stop offset="1" stop-color="#DFA0BE" stop-opacity="0"/></linearGradient></defs></svg>