<svg xmlns="http://www.w3.org/2000/svg" width="80" height="80" fill="none"><path fill="url(#a)" d="M30 47.647c0 9.746 8.954 17.647 20 17.647 1.366 0 2.7-.12 3.99-.351a2.65 2.65 0 0 1 .91-.009l10.75 1.827c1.915.325 3.453-1.563 2.748-3.373l-1.604-4.115c-.326-.838-.166-1.779.342-2.52C68.954 54.093 70 50.977 70 47.646 70 37.901 61.046 30 50 30s-20 7.9-20 17.647z"/><path fill="url(#b)" d="M66.25 37.206c0 13.645-12.592 24.706-28.125 24.706-1.987 0-3.927-.181-5.798-.526-.3-.055-.606-.06-.906-.01l-17.066 2.887c-1.916.325-3.454-1.566-2.745-3.376l3.109-7.942c.329-.84.17-1.787-.358-2.519C11.6 46.603 10 42.07 10 37.206 10 23.56 22.592 12.5 38.125 12.5S66.25 23.561 66.25 37.206z"/><path fill="url(#c)" d="M38.75 51.25a2.5 2.5 0 0 1 2.5-2.5h10a2.5 2.5 0 0 1 0 5h-10a2.5 2.5 0 0 1-2.5-2.5z"/><path fill="url(#d)" d="M38.75 42.5a2.5 2.5 0 0 1 2.5-2.5h17.5a2.5 2.5 0 1 1 0 5h-17.5a2.5 2.5 0 0 1-2.5-2.5z"/><defs><linearGradient id="a" x1="50" x2="50" y1="30" y2="66.797" gradientUnits="userSpaceOnUse"><stop stop-color="#DFA0BE" stop-opacity=".5"/><stop offset="1" stop-color="#DFA0BE" stop-opacity="0"/></linearGradient><linearGradient id="b" x1="41.434" x2="41.434" y1="12.5" y2="64.3" gradientUnits="userSpaceOnUse"><stop stop-color="#DFA0BE" stop-opacity=".8"/><stop offset="1" stop-color="#DFA0BE" stop-opacity="0"/></linearGradient><linearGradient id="c" x1="45.367" x2="45.367" y1="48.75" y2="53.75" gradientUnits="userSpaceOnUse"><stop stop-color="#DFA0BE" stop-opacity=".8"/><stop offset="1" stop-color="#DFA0BE" stop-opacity="0"/></linearGradient><linearGradient id="d" x1="48.676" x2="48.676" y1="40" y2="45" gradientUnits="userSpaceOnUse"><stop stop-color="#DFA0BE" stop-opacity=".8"/><stop offset="1" stop-color="#DFA0BE" stop-opacity="0"/></linearGradient></defs></svg>